<svg width="300" height="300" viewBox="0 0 300 300" fill="none" xmlns="http://www.w3.org/2000/svg">
<rect width="300" height="300" fill="#1E1E1E"/>
<g clip-path="url(#clip0_0_1)">
<rect width="300" height="300" fill="#5291FF"/>
<path d="M300.5 0L599.712 299.25H1.28821L300.5 0Z" fill="#D5D5D5"/>
<path d="M149.167 183.337V224.999M149.167 183.337C142.202 188.567 133.547 191.667 124.167 191.667C101.155 191.667 82.5 173.012 82.5 150C82.5 132.8 92.9223 118.033 107.796 111.672C110.264 91.0152 127.845 75 149.167 75C170.488 75 188.069 91.0152 190.537 111.672C205.411 118.033 215.833 132.8 215.833 150C215.833 173.012 197.178 191.667 174.167 191.667C164.787 191.667 156.131 188.567 149.167 183.337ZM124.167 224.999H174.167" stroke="#57C074" stroke-width="5" stroke-linecap="round" stroke-linejoin="round"/>
<path d="M119.737 118.743C119.13 117.596 117.384 116.626 116.421 115.737C114.374 113.848 115.446 111.722 117.041 109.868C120.325 106.051 124.463 104.396 129.268 103.283C131.173 102.842 133 102.05 134.922 101.709C135.535 101.6 136.326 101.739 136.831 101.351C137.204 101.064 137.726 101.087 138.155 100.921C138.817 100.665 139.24 100.044 139.61 99.466C140.116 98.6777 140.614 97.3817 140.159 96.4599C139.438 94.9994 137.001 95.1318 135.674 95.1239C134.734 95.1183 132.906 94.8842 132.071 95.4579C131.874 95.5934 131.925 96.1913 132.143 96.2929C132.958 96.6731 134.519 96.4547 135.364 96.3645C137.666 96.1189 140.008 95.3486 142.282 94.8853C144.856 94.3611 147.195 93.2278 149.726 92.595C151.185 92.2303 153.236 91.8397 154.688 92.428C158.333 93.9042 160.905 97.3789 161.929 101.16C162.681 103.935 163.452 106.948 163.325 109.844C163.096 115.054 155.966 113.432 152.923 112.421C150.478 111.608 147.853 110.882 145.503 109.82C143.775 109.039 143.227 107.564 142.569 105.908C141.845 104.086 141.161 102.264 140.469 100.432C140.21 99.7466 140.036 99.0726 140.159 98.3327C140.379 97.0108 141.568 96.1398 141.901 94.9092C142.174 93.8985 142.183 92.631 141.96 91.6049C141.887 91.2657 141.787 90.8036 141.638 91.4737C141.209 93.4048 141.017 95.4163 140.994 97.3904C140.937 102.424 141.281 107.467 139.992 112.397C139.127 115.705 137.626 118.607 135.996 121.582C134.79 123.784 133.724 126.1 131.737 127.725C130.104 129.062 128.214 130.056 126.525 131.316C124.958 132.484 123.634 133.743 121.896 134.68C119.542 135.95 117.377 137.373 115.323 139.093C114.11 140.109 112.787 141.659 111.196 142.099C110.361 142.33 109.431 142.759 108.572 142.791C107.45 142.834 105.867 142.649 104.921 142.004C103.877 141.292 103.923 139.54 104.075 138.402C104.199 137.465 105.944 135.552 106.711 135.109C108.858 133.868 111.47 133.246 113.725 132.151C113.762 132.133 114.346 131.924 114.023 131.853C112.785 131.578 111.733 131.164 110.552 130.648C108.769 129.869 106.861 129.58 105.088 128.847C104.667 128.672 104.383 128.534 103.943 128.739C102.597 129.367 101.987 130.539 101.486 131.888C100.451 134.677 100.005 137.38 99.983 140.358C99.9633 143 99.879 145.617 99.7563 148.255C99.6833 149.825 99.2218 150.978 100.412 152.239C101.758 153.664 102.322 155.58 103.502 157.154C104.557 158.56 105.291 160.086 106.425 161.472C108.497 164.005 110.329 166.978 112.604 169.369C113.771 170.595 114.9 171.992 116.469 172.721C116.986 172.961 116.98 173.09 116.409 173.055C114.277 172.921 112.249 172.586 110.206 171.945C107.844 171.205 105.555 170.391 103.061 170.275C102.193 170.235 101.946 170.388 101.915 169.536C101.834 167.283 100.589 166.116 99.649 164.263C99.1878 163.354 98.1227 155.872 99.983 156.545C101.973 157.265 103.9 159.011 105.637 160.184C107.752 161.612 109.746 163.171 111.697 164.812C115.374 167.905 120.049 169.239 124.699 170.18C127.19 170.683 129.719 170.949 132.226 171.349C133.969 171.626 135.657 171.993 137.427 171.993C139.526 171.993 141.849 172.982 143.881 172.088C144.464 171.832 144.747 171.358 145.122 170.872C145.786 170.009 146.713 169.418 147.436 168.605C147.833 168.158 149.494 166.635 148.008 166.864C142.656 167.687 138.199 170.788 133.097 172.327C131.792 172.721 130.434 173.049 129.113 173.389C128.017 173.671 127.589 174.924 127.276 175.941C127.21 176.156 127.295 176.356 127.515 176.144C128.387 175.302 129.272 174.418 130.115 173.544C132.272 171.307 132.804 168.164 133.646 165.289C134.144 163.588 134.532 161.841 134.863 160.1C135.303 157.781 135.25 155.177 136.139 152.979C137.105 150.589 141.001 146.467 143.952 147.205C145.151 147.505 142.296 148.821 142.235 148.851C137.842 150.99 132.936 152.033 128.206 153.122C128.05 153.158 122.875 154.729 124.652 153.169C127.28 150.862 130.993 149.813 134.266 148.851C140.41 147.046 146.735 145.934 152.911 144.247C158.171 142.81 163.142 140.963 168.049 138.616C168.953 138.184 168.327 141.034 168.216 141.479C167.719 143.466 166.16 144.94 164.255 145.618C162.639 146.194 160.802 146.243 159.102 146.227C157.838 146.215 158.164 145.33 158.172 144.271C158.193 141.085 158.744 138.002 159.03 134.847" stroke="#57C074" stroke-width="10" stroke-linecap="round"/>
<path d="M152.804 130.982C151.809 130.982 151.091 130.191 150.394 129.55C148.285 127.611 145.117 126.156 142.247 125.864C140.412 125.678 138.923 126.471 138.251 128.238C137.113 131.227 139.429 132.946 142.211 133.189C146.174 133.535 150.327 131.978 153.949 130.54C157.083 129.296 159.566 128.26 161.607 125.566C162.808 123.981 164.442 122.73 165.448 120.997C165.77 120.444 165.83 119.879 165.913 119.256C166.072 118.066 166.544 116.978 166.88 115.832C167.64 113.235 167.993 111.078 167.393 108.436C166.757 105.642 166.296 102.599 165.138 99.967C164.729 99.0375 164.212 98.1455 163.802 97.2234C163.75 97.1062 163.493 96.8401 163.611 96.8894C164.674 97.3323 165.706 97.8175 166.736 98.3328C167.457 98.6932 168.249 98.9977 168.943 99.4063C169.25 99.587 169.43 100.3 169.647 100.587C170.463 101.665 171.785 102.451 172.45 103.629C173.266 105.072 174.117 106.498 174.92 107.947C176.248 110.346 176.49 113.152 177.114 115.785C177.586 117.772 177.899 119.935 178.582 121.856C179.064 123.213 179.857 124.342 180.502 125.614C181.054 126.702 181.633 127.783 181.993 128.954C182.505 130.616 181.817 132.503 182.53 134.107C183.365 135.985 184.717 136.31 185.345 134.036C186.053 131.476 186.211 128.837 186.717 126.222C186.8 125.795 187.568 124.225 188.184 124.636C189.135 125.269 189.701 126.839 190.582 127.666C191.562 128.584 192.196 130.075 192.908 131.197C193.841 132.665 195.026 133.852 195.723 135.479C196.589 137.498 196.634 139.586 196.869 141.718C197.062 143.476 197.777 145.164 197.99 146.954C198.343 149.928 197.49 153.664 195.652 156.104C192.67 160.062 188.969 162.379 184.749 164.74C181.012 166.831 176.883 167.756 172.772 166.184C170.308 165.242 167.941 164.273 165.4 163.547C164.221 163.211 163.564 162.603 163.337 161.353C163.036 159.699 162.881 157.831 163.742 156.319C165.955 152.434 170.735 151.774 174.753 151.643C177.033 151.568 179.318 151.595 181.6 151.595C182.409 151.595 184.183 151.26 184.88 151.857C185.528 152.412 185.584 153.583 185.584 154.338C185.584 157.552 184.511 160.826 183.127 163.691C181.725 166.592 179.398 169.771 176.542 171.397C174.532 172.541 172.195 173.09 169.933 173.448C167.307 173.865 164.735 174.14 162.084 174.14C161.735 174.14 161.502 173.943 161.178 173.925C160.267 173.875 162.689 174.782 162.907 174.88C166.463 176.467 169.691 178.005 173.631 178.005C176.654 178.005 179.656 177.208 182.626 176.717C183.988 176.492 184.978 176.111 185.858 175.011C186.658 174.011 187.848 173.53 188.757 172.637C190.021 171.396 191.32 170.228 192.586 168.999C194.511 167.129 197.458 165.193 198.491 162.665C198.564 162.485 199.811 159.959 199.731 159.909C199.318 159.651 197.897 160.615 197.62 160.768C195.426 161.984 193.271 163.28 191.167 164.645C186.855 167.442 182.698 170.505 177.663 171.85C172.54 173.219 167.11 173.208 161.846 173.019C158.622 172.903 156.031 171.941 153.078 170.812C152.096 170.436 151.888 169.453 151.515 168.558" stroke="#57C074" stroke-width="10" stroke-linecap="round"/>
<path d="M154.362 144.522C154.362 140.733 151.258 137.262 152.621 133.172C153.28 131.197 156.781 130.795 157.893 132.516C161.307 137.805 151.676 139.164 148.914 140.89" stroke="#57C074" stroke-width="30" stroke-linecap="round"/>
<path d="M105.815 139.864C105.815 137.453 106.557 134.17 107.658 131.968C107.978 131.329 108.693 130.893 109.335 130.66C110.009 130.415 110.374 129.469 111 129.066C111.856 128.516 112.451 127.718 113.426 127.402C113.916 127.243 114.287 126.892 114.805 126.76C115.542 126.57 116.348 126.7 117.041 126.367C117.948 125.932 119.651 125.742 120.37 125.095C121.467 124.107 122.661 122.269 123.26 120.933C124.083 119.097 124.651 117.43 124.651 115.415C124.651 114.27 124.312 112.31 124.889 111.301C126.307 108.819 127.643 106.048 130.216 104.332" stroke="#57C074" stroke-width="30" stroke-linecap="round"/>
<path d="M130.002 104.974C130.002 102.676 131.895 100.518 133.998 99.7898C135.171 99.3838 136.153 99.1467 137.351 98.9336C137.862 98.8429 138.194 98.4037 138.659 98.3391C139.419 98.2336 139.961 97.6364 140.705 97.4353C141.423 97.2411 142.083 96.8877 142.774 96.6267C145.77 95.4948 149.048 95.1992 152.311 94.9619C154.408 94.8094 155.69 94.9721 157.567 95.7705C159.788 96.7156 161.534 98.5185 163.512 99.8374C166.785 102.019 170.88 104.257 172.371 108.078C172.665 108.83 173.454 109.747 173.454 110.54C173.454 111.141 173.579 111.781 173.691 112.371C173.814 113.013 174.31 113.376 174.31 114.071C174.31 114.441 174.207 114.995 174.334 115.344C174.498 115.796 174.877 115.962 174.94 116.533C175.007 117.133 175.11 117.752 175.154 118.352C175.258 119.76 174.671 121.947 175.285 123.263C176.228 125.284 178.357 126.593 180.517 126.593" stroke="#57C074" stroke-width="30" stroke-linecap="round"/>
<path d="M180.089 130.874C181.65 131.069 177.769 140.129 177.592 140.53C176.326 143.396 175.024 146.38 173.287 148.996C171.126 152.251 167.928 154.2 164.119 154.942C160.834 155.582 157.371 155.055 154.094 154.633C149.723 154.07 145.446 153.187 141.204 151.993C138.326 151.183 134.386 150.539 131.881 148.759C130.657 147.888 130.177 146.294 129.681 144.953C129.085 143.341 128.062 141.09 128.361 139.317C128.876 136.27 134.488 134.837 137.066 135.214C138.291 135.394 137.865 137.918 137.779 138.627C137.345 142.21 135.921 145.449 133.736 148.307C131.364 151.411 127.707 154.499 124.247 156.369C123.373 156.842 121.553 155.708 120.906 155.144C119.17 153.633 118.507 151.18 118.325 148.949C118.142 146.701 119.762 145.305 121.429 144.073C125.428 141.117 129.643 138.303 133.879 135.702C136.898 133.848 140.128 132.322 143.059 130.327C144.665 129.234 145.916 127.778 147.459 126.629C148.676 125.722 150.157 125.356 151.573 124.881C152.154 124.686 153.841 124.326 153.94 123.489C153.997 123.004 153.471 122.341 153.238 121.991C151.863 119.928 150.098 118.226 148.196 116.652C147.288 115.9 146.332 115.104 145.2 114.821" stroke="#57C074" stroke-width="30" stroke-linecap="round"/>
<path d="M191.234 143.266C191.579 143.573 192.049 143.512 192.393 143.87C192.897 144.394 192.434 146.067 192.321 146.647C192.005 148.261 191.386 149.887 190.196 151.065C189.399 151.854 188.311 152.352 187.323 152.852C186.35 153.344 186.627 152.191 186.55 151.464C186.238 148.523 186.236 145.605 186.236 142.651C186.236 139.596 186.877 136.539 186.622 133.487C186.615 133.399 185.641 129.422 186.441 130.155C186.999 130.667 186.571 131.821 187.093 132.473C187.466 132.939 187.948 133.193 188.518 133.367C190.475 133.962 190.824 136.174 191.451 137.882C191.811 138.861 191.82 139.896 192.152 140.876C192.488 141.872 192.755 142.864 192.755 143.918C192.755 146.145 193.514 148.233 193.793 150.438C193.997 152.04 194.351 153.741 193.721 155.267C192.913 157.222 191.47 159.266 191.029 161.327C190.604 163.311 188.895 164.761 187.492 166.132C186.747 166.859 186.106 166.799 185.077 166.905C183.328 167.085 181.55 167.369 179.825 167.714C178.645 167.95 177.549 167.97 176.36 168.052C175.376 168.12 174.602 168.669 173.584 168.692C172.712 168.71 171.88 168.942 171.073 169.247C170.364 169.515 169.321 169.333 168.743 169.778C168.052 170.309 166.531 170.252 165.664 170.213C164.575 170.163 163.771 169.552 162.887 169.005C162.11 168.525 161.113 168.479 160.267 168.148C158.979 167.644 157.94 167.259 156.875 166.422C155.936 165.684 154.895 165.544 153.857 164.997C152.656 164.365 151.529 163.508 150.404 162.752C149.521 162.159 148.283 162.172 147.253 162.172C145.247 162.172 143.394 162.241 141.422 162.559C139.741 162.83 138.482 163.476 136.738 163.476C134.987 163.476 133.237 163.476 131.486 163.476C130.67 163.476 129.742 163.353 128.987 163.718C128.068 164.161 127.216 164.864 126.331 165.384C125.185 166.056 123.68 166.809 122.359 166.941C121.097 167.067 119.566 167.065 118.303 166.929C116.663 166.752 114.732 166.582 113.22 165.867C111.79 165.189 109.956 164.158 109.2 162.703C108.04 160.473 108.379 158.851 108.439 156.401C108.45 155.948 108.695 154.515 108.391 154.18C108.18 153.948 107.224 153.945 106.906 153.77C106.387 153.484 104.631 151.191 104.093 151.476C102.889 152.113 100.15 156.305 103.006 156.305" stroke="#57C074" stroke-width="30" stroke-linecap="round"/>
<path d="M105.18 176.515C106.398 176.515 104.545 176.595 104.19 176.684C103.493 176.858 102.826 177.138 102.089 176.853C101.675 176.693 101.399 176.358 100.942 176.309C100.645 176.278 100.281 176.37 100.012 176.201C99.2149 175.699 98.7606 174.947 98.2015 174.233C96.1635 171.629 95.2235 168.28 92.5515 166.18C91.1244 165.059 90.6117 162.884 90.2335 161.182C90.0171 160.208 89.6327 159.293 89.4126 158.309C89.1253 157.025 88.4468 155.662 88.4468 154.373C88.4468 153.567 88.0121 152.992 88.0121 152.285C88.0121 151.653 88.0121 151.021 88.0121 150.389C88.0121 148.151 88.7174 146.439 90.0645 144.606C90.8947 143.477 91.6727 142.372 92.2376 141.081C92.7634 139.879 93.6622 138.03 93.6622 136.747C93.6622 135.187 94.4069 133.529 94.7487 131.99C94.9153 131.241 95.2272 130.087 95.787 129.528C95.9775 129.337 96.4982 128.627 96.777 128.707C97.2073 128.83 96.249 129.433 96.0405 129.829C95.555 130.752 94.8523 131.701 94.5556 132.703C94.0322 134.469 93.3412 136.31 92.5756 138.003C92.2882 138.638 91.9237 138.697 91.9237 139.427C91.9237 140.28 91.9237 137.721 91.9237 136.868C91.9237 136.292 92.6496 134.387 93.1793 134.164C93.9846 133.824 95.133 133.941 95.9802 133.922C97.6955 133.884 99.2014 133.542 100.833 133.053" stroke="#57C074" stroke-width="10" stroke-linecap="round"/>
<path d="M117.784 178.253C117.807 179.119 117.6 180.723 118.653 180.873C119.097 180.936 119.167 181.391 119.353 181.73C119.725 182.408 120.316 182.804 121.043 183.034C122.399 183.463 123.914 183.469 125.317 183.577C127.579 183.751 129.746 183.936 131.981 183.469C134.197 183.006 135.374 182.173 137.124 180.861" stroke="#57C074" stroke-width="10" stroke-linecap="round"/>
<path d="M135.82 184.772C137.708 182.255 138.71 178.429 141.905 177.275C143.054 176.86 144.358 176.48 145.599 176.756C146.162 176.881 146.465 177.726 147.036 178.024C148.915 179.004 151.409 177.692 153.35 178.688C155.826 179.958 158.354 180.47 161.004 181.199C162.405 181.584 163.436 182.436 164.771 182.865C167.683 183.801 171.058 184.338 174.115 184.338C175.792 184.338 177.768 184.64 179.403 184.29C180.354 184.086 181.266 183.753 182.276 183.686C184.136 183.562 185.853 181.97 187.54 181.295" stroke="#57C074" stroke-width="10" stroke-linecap="round"/>
<path d="M191.234 183.034C191.29 181.964 191.766 180.719 192.055 179.678C192.359 178.583 193.269 177.891 193.842 176.937C194.726 175.464 195.987 174.095 197.065 172.748C197.878 171.733 198.372 170.616 199.057 169.512C200.873 166.586 202.717 163.772 203.947 160.518C204.708 158.503 205.338 156.499 205.576 154.349C205.758 152.719 206.293 150.956 205.963 149.303C205.702 147.998 205.111 146.47 204.659 145.222C204.033 143.496 203.427 141.83 202.957 140.043C202.549 138.493 201.787 136.967 201.23 135.455C200.203 132.667 199.597 129.769 198.454 127.016C197.942 125.785 198.016 124.371 197.101 123.322C195.607 121.609 193.32 121.385 191.463 120.34C190.341 119.709 189.155 117.566 188.844 116.32" stroke="#57C074" stroke-width="10" stroke-linecap="round"/>
<path d="M199.492 177.167C200.26 176.782 201.135 174.682 201.544 173.907C202.577 171.954 203.528 170.317 204.104 168.136C204.955 164.912 205.736 161.741 206.446 158.478C206.779 156.944 206.675 155.352 206.892 153.794C207.105 152.272 207.41 150.753 207.641 149.23C207.978 147.004 207.77 144.686 206.446 142.832" stroke="#57C074" stroke-width="10" stroke-linecap="round"/>
<path d="M192.103 179.122H192.538" stroke="#57C074" stroke-width="10" stroke-linecap="round"/>
<path d="M195.798 180.209C195.781 180.361 195.739 180.527 195.58 180.595C195.383 180.68 196.075 179.621 196.111 179.569C196.625 178.835 196.667 178.339 196.667 177.48C196.667 175.631 198.021 173.588 198.84 171.951" stroke="#57C074" stroke-width="10" stroke-linecap="round"/>
<path d="M203.403 166.084C204.024 162.67 204.6 159.133 206.011 155.919C206.528 154.741 206.66 157.219 206.663 157.391C206.681 158.582 206.663 159.774 206.663 160.965C206.663 161.37 206.612 161.945 206.711 161.11C206.859 159.871 206.821 158.609 207.098 157.391C207.619 155.095 207.532 152.681 207.532 150.341C207.532 147.266 207.679 143.855 206.832 140.876C206.48 139.638 205.872 138.495 205.069 137.496C204.212 136.428 202.879 135.449 202.365 134.164C201.705 132.513 201.304 130.672 201.037 128.936C200.978 128.555 201.443 126.077 202.1 126.63C203.261 127.609 203.843 129.471 204.502 130.759C206.511 134.685 206.877 139.349 208.136 143.556C209.398 147.771 210.936 152.047 210.563 156.534C210.389 158.614 209.491 160.625 208.788 162.559C208.607 163.055 208.456 164.345 207.967 164.345" stroke="#57C074" stroke-width="10" stroke-linecap="round"/>
<path d="M105.832 179.122C105.832 180.112 105.818 181.103 105.832 182.092C105.855 183.867 108.13 184.101 109.671 184.121C113.784 184.171 117.77 184.773 121.864 184.978C125.702 185.17 129.588 184.99 133.43 184.99C137.062 184.99 140.471 185.231 143.885 183.903C145.42 183.306 146.553 183.265 146.903 181.513" stroke="#57C074" stroke-width="10" stroke-linecap="round"/>
<path d="M156.247 183.034C156.312 182.515 158.646 182.776 158.964 183.143C159.357 183.597 159.852 183.314 160.267 183.698C160.817 184.205 161.406 184.121 162.115 184.121" stroke="#57C074" stroke-width="10" stroke-linecap="round"/>
<path d="M118.001 100.022C116.582 99.8549 116.48 95.4366 117.349 94.6374C118.761 93.3381 120.349 92.4287 121.743 91.0638C124.301 88.5603 128.231 87.2853 131.595 86.3313C133.315 85.8434 135.087 84.9759 136.738 84.2789C139.206 83.2366 142.268 83.289 144.947 83.289C146.741 83.289 148.779 83.5493 150.476 82.9027C151.247 82.6092 152.504 82.8544 153.314 82.8544C154.509 82.8544 155.704 82.8415 156.899 82.8544C159.219 82.8793 161.659 83.2824 163.877 83.9651C165.559 84.4825 166.72 85.1724 168.199 85.9691C169.086 86.4464 169.671 87.2106 170.493 87.7197C171.319 88.2311 172.007 89.1018 172.811 89.5427C173.936 90.1597 174.704 91.3816 175.576 92.3073C175.791 92.5363 176.657 93.7335 176.095 93.7198C175.703 93.7103 174.743 93.0202 174.743 93.2973C174.743 93.4879 175.599 94.3901 175.757 94.6132C175.963 94.9054 176.613 95.8424 175.709 95.5911C174.44 95.2386 173.263 94.1764 172.171 93.4904C170.287 92.3063 168.358 91.1852 166.364 90.1946C163.776 88.9082 161.089 88.3623 158.288 87.7438C155.815 87.1978 153.528 86.2825 151.128 85.5104C150.147 85.1947 149.183 84.845 148.46 84.0858C147.689 83.2759 146.449 83.1223 145.478 82.6371C145.073 82.4345 143.736 81.6932 143.607 81.3332C143.397 80.7436 146.076 80.9741 146.42 80.802C147.437 80.2937 148.865 80.2955 150.006 80.2587C150.88 80.2305 153.894 79.902 151.901 80.8986" stroke="#57C074" stroke-width="10" stroke-linecap="round"/>
<path d="M88.6641 143.266C88.6641 142.049 88.8701 140.958 87.5775 140.441" stroke="#57C074" stroke-width="10" stroke-linecap="round"/>
</g>
<defs>
<clipPath id="clip0_0_1">
<rect width="300" height="300" fill="white"/>
</clipPath>
</defs>
</svg>
